<svg xmlns="http://www.w3.org/2000/svg" xmlns:xlink="http://www.w3.org/1999/xlink" viewBox="0,0,256,256" width="250px" height="250px"><g fill="#ffffff" fill-rule="nonzero" stroke="none" stroke-width="1" stroke-linecap="butt" stroke-linejoin="miter" stroke-miterlimit="10" stroke-dasharray="" stroke-dashoffset="0" font-family="none" font-weight="none" font-size="none" text-anchor="none" style="mix-blend-mode: normal"><g transform="scale(5.12,5.12)"><path d="M22.5,5c-5.78906,0 -10.5,4.71094 -10.5,10.5c0,0.17188 0.02344,0.33203 0.03125,0.5c-0.01172,0 -0.01953,0 -0.03125,0c-4.40625,0 -8,3.59375 -8,8c0,4.40625 3.59375,8 8,8h24c5.51172,0 10,-4.48828 10,-10c0,-5.51172 -4.48828,-10 -10,-10c-1.25391,0 -2.42578,0.29688 -3.53125,0.71875c-1.23828,-4.42187 -5.16016,-7.71875 -9.96875,-7.71875zM22.5,7c4.25,0 7.73438,3.09766 8.375,7.15625l0.21875,1.375l1.25,-0.625c1.10547,-0.57031 2.33203,-0.90625 3.65625,-0.90625c4.42969,0 8,3.57031 8,8c0,4.42969 -3.57031,8 -8,8h-24c-3.32422,0 -6,-2.67578 -6,-6c0,-3.32422 2.67578,-6 6,-6c0.32422,0 0.63281,0.03906 0.96875,0.09375l1.40625,0.21875l-0.25,-1.375c-0.08203,-0.48047 -0.125,-0.96094 -0.125,-1.4375c0,-4.70703 3.79297,-8.5 8.5,-8.5zM24.875,34c-0.22266,0.02344 -0.43359,0.125 -0.59375,0.28125l-7,7c-0.39844,0.39844 -0.39844,1.03906 0,1.4375c0.39844,0.39844 1.03906,0.39844 1.4375,0l7,-7c0.32422,-0.30078 0.41016,-0.77734 0.21484,-1.17187c-0.19141,-0.39844 -0.625,-0.61719 -1.05859,-0.54687zM12.875,36c-0.22266,0.02344 -0.43359,0.125 -0.59375,0.28125l-6,6c-0.39844,0.39844 -0.39844,1.03906 0,1.4375c0.39844,0.39844 1.03906,0.39844 1.4375,0l6,-6c0.32422,-0.30078 0.41016,-0.77734 0.21484,-1.17187c-0.19141,-0.39844 -0.625,-0.61719 -1.05859,-0.54687zM32.875,36c-0.22266,0.02344 -0.43359,0.125 -0.59375,0.28125l-6,6c-0.39844,0.39844 -0.39844,1.03906 0,1.4375c0.39844,0.39844 1.03906,0.39844 1.4375,0l6,-6c0.32422,-0.30078 0.41016,-0.77734 0.21484,-1.17187c-0.19141,-0.39844 -0.625,-0.61719 -1.05859,-0.54687z"></path></g></g></svg>