<svg xmlns="http://www.w3.org/2000/svg" xmlns:xlink="http://www.w3.org/1999/xlink" viewBox="0,0,256,256" width="250px" height="250px"><g fill="#ffffff" fill-rule="nonzero" stroke="none" stroke-width="1" stroke-linecap="butt" stroke-linejoin="miter" stroke-miterlimit="10" stroke-dasharray="" stroke-dashoffset="0" font-family="none" font-weight="none" font-size="none" text-anchor="none" style="mix-blend-mode: normal"><g transform="scale(5.12,5.12)"><path d="M6.8125,6c-0.31641,0.0625 -0.58203,0.26953 -0.71875,0.5625c0,0 -1.78906,3.4375 -5.09375,3.4375c-0.35937,-0.00391 -0.69531,0.18359 -0.87891,0.49609c-0.17969,0.3125 -0.17969,0.69531 0,1.00781c0.18359,0.3125 0.51953,0.5 0.87891,0.49609c3.41016,0 5.11328,-2.03906 6,-3.34375c0.88281,1.30859 2.57031,3.34375 6,3.34375c3.42969,0 5.11719,-2.03516 6,-3.34375c0.87891,1.30859 2.57031,3.34375 6,3.34375c3.42969,0 5.12109,-2.03516 6,-3.34375c0.87891,1.30859 2.56641,3.34375 6,3.34375c3.43359,0 5.12109,-2.03516 6,-3.34375c0.88281,1.30469 2.58594,3.34375 6,3.34375c0.35938,0.00391 0.69531,-0.18359 0.87891,-0.49609c0.17969,-0.3125 0.17969,-0.69531 0,-1.00781c-0.18359,-0.3125 -0.51953,-0.5 -0.87891,-0.49609c-3.3125,0 -5.09375,-3.4375 -5.09375,-3.4375c-0.16406,-0.35156 -0.51953,-0.57812 -0.90625,-0.57812c-0.38672,0 -0.74219,0.22656 -0.90625,0.57813c0,0 -1.73437,3.4375 -5.09375,3.4375c-3.35937,0 -5.09375,-3.4375 -5.09375,-3.4375c-0.16406,-0.35156 -0.51953,-0.57812 -0.90625,-0.57812c-0.38672,0 -0.74219,0.22656 -0.90625,0.57813c0,0 -1.73437,3.4375 -5.09375,3.4375c-3.35937,0 -5.09375,-3.4375 -5.09375,-3.4375c-0.16406,-0.35156 -0.51953,-0.57812 -0.90625,-0.57812c-0.38672,0 -0.74219,0.22656 -0.90625,0.57813c0,0 -1.73828,3.4375 -5.09375,3.4375c-3.35547,0 -5.09375,-3.4375 -5.09375,-3.4375c-0.18359,-0.37891 -0.58203,-0.60547 -1,-0.5625c-0.03125,0 -0.0625,0 -0.09375,0zM6.8125,22c-0.31641,0.0625 -0.58203,0.26953 -0.71875,0.5625c0,0 -1.78906,3.4375 -5.09375,3.4375c-0.35937,-0.00391 -0.69531,0.18359 -0.87891,0.49609c-0.17969,0.3125 -0.17969,0.69531 0,1.00781c0.18359,0.3125 0.51953,0.5 0.87891,0.49609c3.41016,0 5.11328,-2.03906 6,-3.34375c0.88281,1.30859 2.57031,3.34375 6,3.34375c3.42969,0 5.11719,-2.03516 6,-3.34375c0.87891,1.30859 2.57031,3.34375 6,3.34375c3.42969,0 5.12109,-2.03516 6,-3.34375c0.87891,1.30859 2.56641,3.34375 6,3.34375c3.43359,0 5.12109,-2.03516 6,-3.34375c0.88281,1.30469 2.58594,3.34375 6,3.34375c0.35938,0.00391 0.69531,-0.18359 0.87891,-0.49609c0.17969,-0.3125 0.17969,-0.69531 0,-1.00781c-0.18359,-0.3125 -0.51953,-0.5 -0.87891,-0.49609c-3.3125,0 -5.09375,-3.4375 -5.09375,-3.4375c-0.16406,-0.35156 -0.51953,-0.57812 -0.90625,-0.57812c-0.38672,0 -0.74219,0.22656 -0.90625,0.57813c0,0 -1.73437,3.4375 -5.09375,3.4375c-3.35937,0 -5.09375,-3.4375 -5.09375,-3.4375c-0.16406,-0.35156 -0.51953,-0.57812 -0.90625,-0.57812c-0.38672,0 -0.74219,0.22656 -0.90625,0.57813c0,0 -1.73437,3.4375 -5.09375,3.4375c-3.35937,0 -5.09375,-3.4375 -5.09375,-3.4375c-0.16406,-0.35156 -0.51953,-0.57812 -0.90625,-0.57812c-0.38672,0 -0.74219,0.22656 -0.90625,0.57813c0,0 -1.73828,3.4375 -5.09375,3.4375c-3.35547,0 -5.09375,-3.4375 -5.09375,-3.4375c-0.18359,-0.37891 -0.58203,-0.60547 -1,-0.5625c-0.03125,0 -0.0625,0 -0.09375,0zM6.8125,38c-0.31641,0.0625 -0.58203,0.26953 -0.71875,0.5625c0,0 -1.78906,3.4375 -5.09375,3.4375c-0.35937,-0.00391 -0.69531,0.18359 -0.87891,0.49609c-0.17969,0.3125 -0.17969,0.69531 0,1.00781c0.18359,0.3125 0.51953,0.5 0.87891,0.49609c3.41016,0 5.11328,-2.03906 6,-3.34375c0.88281,1.30859 2.57031,3.34375 6,3.34375c3.42969,0 5.11719,-2.03516 6,-3.34375c0.87891,1.30859 2.57031,3.34375 6,3.34375c3.42969,0 5.12109,-2.03516 6,-3.34375c0.87891,1.30859 2.56641,3.34375 6,3.34375c3.43359,0 5.12109,-2.03516 6,-3.34375c0.88281,1.30469 2.58594,3.34375 6,3.34375c0.35938,0.00391 0.69531,-0.18359 0.87891,-0.49609c0.17969,-0.3125 0.17969,-0.69531 0,-1.00781c-0.18359,-0.3125 -0.51953,-0.5 -0.87891,-0.49609c-3.3125,0 -5.09375,-3.4375 -5.09375,-3.4375c-0.16406,-0.35156 -0.51953,-0.57812 -0.90625,-0.57812c-0.38672,0 -0.74219,0.22656 -0.90625,0.57813c0,0 -1.73437,3.4375 -5.09375,3.4375c-3.35937,0 -5.09375,-3.4375 -5.09375,-3.4375c-0.16406,-0.35156 -0.51953,-0.57812 -0.90625,-0.57812c-0.38672,0 -0.74219,0.22656 -0.90625,0.57813c0,0 -1.73437,3.4375 -5.09375,3.4375c-3.35937,0 -5.09375,-3.4375 -5.09375,-3.4375c-0.16406,-0.35156 -0.51953,-0.57812 -0.90625,-0.57812c-0.38672,0 -0.74219,0.22656 -0.90625,0.57813c0,0 -1.73828,3.4375 -5.09375,3.4375c-3.35547,0 -5.09375,-3.4375 -5.09375,-3.4375c-0.18359,-0.37891 -0.58203,-0.60547 -1,-0.5625c-0.03125,0 -0.0625,0 -0.09375,0z"></path></g></g></svg>