<svg xmlns="http://www.w3.org/2000/svg" xmlns:xlink="http://www.w3.org/1999/xlink" viewBox="0,0,256,256" width="250px" height="250px"><g fill="#ffffff" fill-rule="nonzero" stroke="none" stroke-width="1" stroke-linecap="butt" stroke-linejoin="miter" stroke-miterlimit="10" stroke-dasharray="" stroke-dashoffset="0" font-family="none" font-weight="none" font-size="none" text-anchor="none" style="mix-blend-mode: normal"><g transform="scale(5.12,5.12)"><path d="M15.5,4c-2.67029,0 -5.01996,1.40632 -6.3457,3.51367c-0.20184,0.30234 -0.22372,0.6904 -0.05715,1.01352c0.16657,0.32312 0.49535,0.53041 0.8587,0.5414c0.36336,0.01099 0.70406,-0.17605 0.88985,-0.48851c0.97426,-1.54864 2.68458,-2.58008 4.6543,-2.58008c3.09806,0 5.57799,2.52604 5.49805,5.64648c-0.07732,3.00357 -2.73739,5.35352 -5.79883,5.35352h-11.19922c-0.36064,-0.0051 -0.69608,0.18438 -0.87789,0.49587c-0.18181,0.3115 -0.18181,0.69676 0,1.00825c0.18181,0.3115 0.51725,0.50097 0.87789,0.49587h11.19922c4.08857,0 7.69214,-3.15831 7.79883,-7.30273c0.10805,-4.21755 -3.3021,-7.69727 -7.49805,-7.69727zM38,8c-3.38294,0 -6.34052,1.87482 -7.875,4.64453c-0.17352,0.31262 -0.16704,0.69407 0.01699,1.00061c0.18403,0.30655 0.51765,0.4916 0.87514,0.48543c0.35749,-0.00617 0.68452,-0.20262 0.85787,-0.51534c1.19352,-2.15428 3.47995,-3.61523 6.125,-3.61523c4.02155,0 7.23173,3.35061 6.98633,7.43359c-0.22378,3.72336 -3.51859,6.56641 -7.29883,6.56641h-33.6875c-0.36064,-0.0051 -0.69608,0.18438 -0.87789,0.49587c-0.18181,0.3115 -0.18181,0.69676 0,1.00825c0.18181,0.3115 0.51725,0.50097 0.87789,0.49587h33.6875c4.78576,0 9.00471,-3.61667 9.29492,-8.44531c0.3126,-5.20101 -3.83997,-9.55469 -8.98242,-9.55469zM4,31c-0.36064,-0.0051 -0.69608,0.18438 -0.87789,0.49587c-0.18181,0.3115 -0.18181,0.69676 0,1.00825c0.18181,0.3115 0.51725,0.50097 0.87789,0.49587h21.19922c3.06143,0 5.72151,2.34994 5.79883,5.35352c0.07995,3.12045 -2.39999,5.64648 -5.49805,5.64648c-1.96971,0 -3.68004,-1.03143 -4.6543,-2.58008c-0.18579,-0.31246 -0.5265,-0.4995 -0.88986,-0.48851c-0.36336,0.01099 -0.69214,0.21828 -0.85871,0.5414c-0.16657,0.32312 -0.14468,0.71118 0.05715,1.01352c1.32574,2.10736 3.67542,3.51367 6.3457,3.51367c4.19594,0 7.6061,-3.47971 7.49805,-7.69727c-0.10668,-4.14443 -3.71026,-7.30273 -7.79883,-7.30273z"></path></g></g></svg>